G04 #@! TF.GenerationSoftware,KiCad,Pcbnew,5.0.1+dfsg1-2~bpo9+1*
G04 #@! TF.CreationDate,2018-11-07T17:05:17+00:00*
G04 #@! TF.ProjectId,xmas_zero_bauble,786D61735F7A65726F5F626175626C65,rev?*
G04 #@! TF.SameCoordinates,Original*
G04 #@! TF.FileFunction,Legend,Top*
G04 #@! TF.FilePolarity,Positive*
%FSLAX46Y46*%
G04 Gerber Fmt 4.6, Leading zero omitted, Abs format (unit mm)*
G04 Created by KiCad (PCBNEW 5.0.1+dfsg1-2~bpo9+1) date Wed 07 Nov 2018 17:05:17 GMT*
%MOMM*%
%LPD*%
G01*
G04 APERTURE LIST*
%ADD10C,0.150000*%
%ADD11C,0.125000*%
G04 APERTURE END LIST*
D10*
G04 #@! TO.C,U1*
X204632560Y-57129680D02*
X160055560Y-57129680D01*
X204632560Y-57129680D02*
X220253560Y-57129680D01*
X220253560Y-57129680D02*
X220253560Y-99611180D01*
X220253560Y-99611180D02*
X160055560Y-99611180D01*
X160055560Y-99611180D02*
X160055560Y-78529180D01*
X160055560Y-57129680D02*
X160055560Y-78529180D01*
X204950060Y-77957680D02*
X206093060Y-77957680D01*
X206093060Y-77957680D02*
X206093060Y-78783180D01*
X206093060Y-78783180D02*
X204950060Y-78783180D01*
X201267060Y-77195680D02*
X200187560Y-77195680D01*
X200187560Y-77957680D02*
X200187560Y-78783180D01*
X201267060Y-77957680D02*
X200187560Y-77957680D01*
X200187560Y-78783180D02*
X201267060Y-78783180D01*
X201267060Y-74782680D02*
X200187560Y-74782680D01*
X200187560Y-74782680D02*
X200187560Y-77195680D01*
X204950060Y-77195680D02*
X206093060Y-77195680D01*
X206093060Y-77195680D02*
X206093060Y-74782680D01*
X206093060Y-74782680D02*
X204950060Y-74782680D01*
X206878940Y-79164084D02*
X207688464Y-79164084D01*
X207783702Y-79116465D01*
X207831321Y-79068846D01*
X207878940Y-78973608D01*
X207878940Y-78783132D01*
X207831321Y-78687894D01*
X207783702Y-78640275D01*
X207688464Y-78592656D01*
X206878940Y-78592656D01*
X207878940Y-77592656D02*
X207878940Y-78164084D01*
X207878940Y-77878370D02*
X206878940Y-77878370D01*
X207021798Y-77973608D01*
X207117036Y-78068846D01*
X207164655Y-78164084D01*
D11*
X204477750Y-86590522D02*
X204477750Y-86876237D01*
X204477750Y-86733380D02*
X203977750Y-86733380D01*
X204049179Y-86780999D01*
X204096798Y-86828618D01*
X204120607Y-86876237D01*
X204477750Y-70064618D02*
X204477750Y-70350332D01*
X204477750Y-70207475D02*
X203977750Y-70207475D01*
X204049179Y-70255094D01*
X204096798Y-70302713D01*
X204120607Y-70350332D01*
X204192036Y-69778903D02*
X204168226Y-69826522D01*
X204144417Y-69850332D01*
X204096798Y-69874141D01*
X204072988Y-69874141D01*
X204025369Y-69850332D01*
X204001560Y-69826522D01*
X203977750Y-69778903D01*
X203977750Y-69683665D01*
X204001560Y-69636046D01*
X204025369Y-69612237D01*
X204072988Y-69588427D01*
X204096798Y-69588427D01*
X204144417Y-69612237D01*
X204168226Y-69636046D01*
X204192036Y-69683665D01*
X204192036Y-69778903D01*
X204215845Y-69826522D01*
X204239655Y-69850332D01*
X204287274Y-69874141D01*
X204382512Y-69874141D01*
X204430131Y-69850332D01*
X204453940Y-69826522D01*
X204477750Y-69778903D01*
X204477750Y-69683665D01*
X204453940Y-69636046D01*
X204430131Y-69612237D01*
X204382512Y-69588427D01*
X204287274Y-69588427D01*
X204239655Y-69612237D01*
X204215845Y-69636046D01*
X204192036Y-69683665D01*
D10*
X200524131Y-78592656D02*
X201057464Y-78402180D01*
X200524131Y-78211703D01*
X201247964Y-76503465D02*
X201247964Y-76884418D01*
X200447964Y-76884418D01*
X200828917Y-76236799D02*
X200828917Y-75970132D01*
X201247964Y-75855846D02*
X201247964Y-76236799D01*
X200447964Y-76236799D01*
X200447964Y-75855846D01*
X201247964Y-75512989D02*
X200447964Y-75512989D01*
X200447964Y-75322513D01*
X200486060Y-75208227D01*
X200562250Y-75132037D01*
X200638440Y-75093941D01*
X200790821Y-75055846D01*
X200905107Y-75055846D01*
X201057488Y-75093941D01*
X201133679Y-75132037D01*
X201209869Y-75208227D01*
X201247964Y-75322513D01*
X201247964Y-75512989D01*
X205819964Y-76503465D02*
X205819964Y-76884418D01*
X205019964Y-76884418D01*
X205400917Y-76236799D02*
X205400917Y-75970132D01*
X205819964Y-75855846D02*
X205819964Y-76236799D01*
X205019964Y-76236799D01*
X205019964Y-75855846D01*
X205819964Y-75512989D02*
X205019964Y-75512989D01*
X205019964Y-75322513D01*
X205058060Y-75208227D01*
X205134250Y-75132037D01*
X205210440Y-75093941D01*
X205362821Y-75055846D01*
X205477107Y-75055846D01*
X205629488Y-75093941D01*
X205705679Y-75132037D01*
X205781869Y-75208227D01*
X205819964Y-75322513D01*
X205819964Y-75512989D01*
X205286631Y-78592656D02*
X205819964Y-78402180D01*
X205286631Y-78211703D01*
X200259060Y-79346775D02*
X200211440Y-79442013D01*
X200211440Y-79584870D01*
X200259060Y-79727727D01*
X200354298Y-79822965D01*
X200449536Y-79870584D01*
X200640012Y-79918203D01*
X200782869Y-79918203D01*
X200973345Y-79870584D01*
X201068583Y-79822965D01*
X201163821Y-79727727D01*
X201211440Y-79584870D01*
X201211440Y-79489632D01*
X201163821Y-79346775D01*
X201116202Y-79299156D01*
X200782869Y-79299156D01*
X200782869Y-79489632D01*
X205085060Y-79346775D02*
X205037440Y-79442013D01*
X205037440Y-79584870D01*
X205085060Y-79727727D01*
X205180298Y-79822965D01*
X205275536Y-79870584D01*
X205466012Y-79918203D01*
X205608869Y-79918203D01*
X205799345Y-79870584D01*
X205894583Y-79822965D01*
X205989821Y-79727727D01*
X206037440Y-79584870D01*
X206037440Y-79489632D01*
X205989821Y-79346775D01*
X205942202Y-79299156D01*
X205608869Y-79299156D01*
X205608869Y-79489632D01*
X200195560Y-84934775D02*
X200147940Y-85030013D01*
X200147940Y-85172870D01*
X200195560Y-85315727D01*
X200290798Y-85410965D01*
X200386036Y-85458584D01*
X200576512Y-85506203D01*
X200719369Y-85506203D01*
X200909845Y-85458584D01*
X201005083Y-85410965D01*
X201100321Y-85315727D01*
X201147940Y-85172870D01*
X201147940Y-85077632D01*
X201100321Y-84934775D01*
X201052702Y-84887156D01*
X200719369Y-84887156D01*
X200719369Y-85077632D01*
X205085060Y-84934775D02*
X205037440Y-85030013D01*
X205037440Y-85172870D01*
X205085060Y-85315727D01*
X205180298Y-85410965D01*
X205275536Y-85458584D01*
X205466012Y-85506203D01*
X205608869Y-85506203D01*
X205799345Y-85458584D01*
X205894583Y-85410965D01*
X205989821Y-85315727D01*
X206037440Y-85172870D01*
X206037440Y-85077632D01*
X205989821Y-84934775D01*
X205942202Y-84887156D01*
X205608869Y-84887156D01*
X205608869Y-85077632D01*
G04 #@! TD*
M02*
