G04 #@! TF.GenerationSoftware,KiCad,Pcbnew,5.0.1+dfsg1-2~bpo9+1*
G04 #@! TF.CreationDate,2018-11-07T17:05:17+00:00*
G04 #@! TF.ProjectId,xmas_zero_bauble,786D61735F7A65726F5F626175626C65,rev?*
G04 #@! TF.SameCoordinates,Original*
G04 #@! TF.FileFunction,Copper,L1,Top,Signal*
G04 #@! TF.FilePolarity,Positive*
%FSLAX46Y46*%
G04 Gerber Fmt 4.6, Leading zero omitted, Abs format (unit mm)*
G04 Created by KiCad (PCBNEW 5.0.1+dfsg1-2~bpo9+1) date Wed 07 Nov 2018 17:05:17 GMT*
%MOMM*%
%LPD*%
G01*
G04 APERTURE LIST*
G04 #@! TA.AperFunction,SMDPad,CuDef*
%ADD10R,3.000000X0.400000*%
G04 #@! TD*
G04 #@! TA.AperFunction,ViaPad*
%ADD11C,0.800000*%
G04 #@! TD*
G04 #@! TA.AperFunction,Conductor*
%ADD12C,0.250000*%
G04 #@! TD*
G04 APERTURE END LIST*
D10*
G04 #@! TO.P,U1,1*
G04 #@! TO.N,Net-(J1-Pad6)*
X203108560Y-85196680D03*
G04 #@! TO.P,U1,2*
G04 #@! TO.N,Net-(J1-Pad13)*
X203108560Y-84396580D03*
G04 #@! TO.P,U1,3*
G04 #@! TO.N,Net-(J1-Pad23)*
X203108560Y-83596480D03*
G04 #@! TO.P,U1,4*
G04 #@! TO.N,Net-(J1-Pad22)*
X203108560Y-82796380D03*
G04 #@! TO.P,U1,5*
G04 #@! TO.N,Net-(J1-Pad24)*
X203108560Y-81996280D03*
G04 #@! TO.P,U1,6*
G04 #@! TO.N,Net-(J1-Pad19)*
X203108560Y-81196180D03*
G04 #@! TO.P,U1,7*
G04 #@! TO.N,Net-(U1-Pad7)*
X203108560Y-80396080D03*
G04 #@! TO.P,U1,8*
G04 #@! TO.N,Net-(J1-Pad6)*
X203108560Y-79595980D03*
G04 #@! TO.P,U1,9*
G04 #@! TO.N,Net-(J1-Pad1)*
X203108560Y-78795880D03*
G04 #@! TO.P,U1,10*
X203108560Y-77995780D03*
G04 #@! TO.P,U1,11*
G04 #@! TO.N,Net-(R1-Pad1)*
X203108560Y-77195680D03*
G04 #@! TO.P,U1,12*
X203108560Y-76395580D03*
G04 #@! TO.P,U1,13*
X203108560Y-75595480D03*
G04 #@! TO.P,U1,14*
X203108560Y-74795380D03*
G04 #@! TO.P,U1,15*
G04 #@! TO.N,Net-(U1-Pad15)*
X203108560Y-73995280D03*
G04 #@! TO.P,U1,16*
G04 #@! TO.N,Net-(U1-Pad16)*
X203108560Y-73195180D03*
G04 #@! TO.P,U1,17*
G04 #@! TO.N,Net-(U1-Pad17)*
X203108560Y-72395080D03*
G04 #@! TO.P,U1,18*
G04 #@! TO.N,Net-(U1-Pad18)*
X203108560Y-71594980D03*
G04 #@! TD*
D11*
G04 #@! TO.N,Net-(J1-Pad1)*
X168965880Y-72882760D03*
G04 #@! TO.N,Net-(J1-Pad6)*
X171175680Y-64114680D03*
X221700000Y-67000000D03*
G04 #@! TO.N,Net-(J1-Pad13)*
X198490840Y-84366100D03*
G04 #@! TO.N,Net-(J1-Pad19)*
X199186800Y-80850740D03*
G04 #@! TO.N,Net-(J1-Pad22)*
X208686400Y-82506820D03*
G04 #@! TO.N,Net-(J1-Pad23)*
X200324720Y-83103720D03*
G04 #@! TO.N,Net-(J1-Pad24)*
X210891120Y-81818480D03*
G04 #@! TO.N,Net-(J1-Pad33)*
X207600000Y-66300000D03*
X219200000Y-80300000D03*
G04 #@! TO.N,Net-(R1-Pad1)*
X185100000Y-75500000D03*
G04 #@! TD*
D12*
G04 #@! TO.N,Net-(J1-Pad1)*
X201358560Y-78795880D02*
X203108560Y-78795880D01*
X201358560Y-77995780D02*
X200558460Y-78795880D01*
X203108560Y-77995780D02*
X201358560Y-77995780D01*
X200558460Y-78795880D02*
X199712580Y-78795880D01*
X199712580Y-78795880D02*
X201358560Y-78795880D01*
X174879000Y-78795880D02*
X199712580Y-78795880D01*
X168965880Y-72882760D02*
X174879000Y-78795880D01*
G04 #@! TO.N,Net-(J1-Pad6)*
X204858560Y-85196680D02*
X205254800Y-84800440D01*
X203108560Y-85196680D02*
X204858560Y-85196680D01*
X205254800Y-84800440D02*
X210809840Y-84800440D01*
X210809840Y-84800440D02*
X212453220Y-83157060D01*
X212453220Y-83157060D02*
X212453220Y-74681080D01*
X208842119Y-71069979D02*
X206256399Y-71069979D01*
X206256399Y-71069979D02*
X205625700Y-70439280D01*
X205625700Y-70439280D02*
X205625700Y-67180460D01*
X205625700Y-67180460D02*
X204200760Y-65755520D01*
X209996980Y-74457560D02*
X212229700Y-74457560D01*
X204858560Y-79595980D02*
X209996980Y-74457560D01*
X203108560Y-79595980D02*
X204858560Y-79595980D01*
X212453220Y-74681080D02*
X212229700Y-74457560D01*
X212229700Y-74457560D02*
X208842119Y-71069979D01*
X204200760Y-65755520D02*
X204200760Y-65732660D01*
X204200760Y-65732660D02*
X202582780Y-64114680D01*
X218248995Y-64114680D02*
X202500000Y-64114680D01*
X221134315Y-67000000D02*
X218248995Y-64114680D01*
X221700000Y-67000000D02*
X221134315Y-67000000D01*
X202582780Y-64114680D02*
X202500000Y-64114680D01*
X202500000Y-64114680D02*
X171175680Y-64114680D01*
G04 #@! TO.N,Net-(J1-Pad13)*
X203078080Y-84366100D02*
X203108560Y-84396580D01*
X198490840Y-84366100D02*
X203078080Y-84366100D01*
G04 #@! TO.N,Net-(J1-Pad19)*
X203054001Y-81250739D02*
X203108560Y-81196180D01*
X199586799Y-81250739D02*
X203054001Y-81250739D01*
X199186800Y-80850740D02*
X199586799Y-81250739D01*
G04 #@! TO.N,Net-(J1-Pad22)*
X204858560Y-82796380D02*
X203108560Y-82796380D01*
X207831155Y-82796380D02*
X204858560Y-82796380D01*
X208120715Y-82506820D02*
X207831155Y-82796380D01*
X208686400Y-82506820D02*
X208120715Y-82506820D01*
G04 #@! TO.N,Net-(J1-Pad23)*
X200817480Y-83596480D02*
X203108560Y-83596480D01*
X200324720Y-83103720D02*
X200817480Y-83596480D01*
G04 #@! TO.N,Net-(J1-Pad24)*
X210325435Y-81818480D02*
X209804735Y-81297780D01*
X210891120Y-81818480D02*
X210325435Y-81818480D01*
X204858560Y-81996280D02*
X203108560Y-81996280D01*
X205557060Y-81297780D02*
X204858560Y-81996280D01*
X209804735Y-81297780D02*
X205557060Y-81297780D01*
G04 #@! TO.N,Net-(J1-Pad33)*
X207600000Y-66300000D02*
X208200000Y-65700000D01*
X208200000Y-65700000D02*
X215900000Y-65700000D01*
X219200000Y-69000000D02*
X219200000Y-80300000D01*
X215900000Y-65700000D02*
X219200000Y-69000000D01*
G04 #@! TO.N,Net-(R1-Pad1)*
X200202800Y-77195680D02*
X203108560Y-77195680D01*
X199749359Y-76742239D02*
X200202800Y-77195680D01*
X201358560Y-76395580D02*
X201109640Y-76146660D01*
X203108560Y-76395580D02*
X201358560Y-76395580D01*
X201109640Y-76146660D02*
X199490279Y-76146660D01*
X199490279Y-76146660D02*
X198894700Y-76742239D01*
X198894700Y-76742239D02*
X199749359Y-76742239D01*
X201358560Y-75595480D02*
X201356020Y-75598020D01*
X203108560Y-75595480D02*
X201358560Y-75595480D01*
X201356020Y-75598020D02*
X198878139Y-75598020D01*
X197733920Y-76742239D02*
X198894700Y-76742239D01*
X198878139Y-75598020D02*
X197733920Y-76742239D01*
X201358560Y-74795380D02*
X201353480Y-74790300D01*
X203108560Y-74795380D02*
X201358560Y-74795380D01*
X198619059Y-74790300D02*
X196667120Y-76742239D01*
X196667120Y-76742239D02*
X197733920Y-76742239D01*
X201353480Y-74790300D02*
X198619059Y-74790300D01*
X186907924Y-76742239D02*
X196667120Y-76742239D01*
X185665685Y-75500000D02*
X186907924Y-76742239D01*
X185100000Y-75500000D02*
X185665685Y-75500000D01*
G04 #@! TD*
M02*
